<?xml version="1.0" standalone="no"?>
<svg xmlns:xlink="http://www.w3.org/1999/xlink" id="wave" style="transform:rotate(0deg); transition: 0.3s" viewBox="0 0 1440 340" version="1.1" xmlns="http://www.w3.org/2000/svg"><defs><linearGradient id="sw-gradient-0" x1="0" x2="0" y1="1" y2="0"><stop stop-color="rgba(0, 14, 86, 1)" offset="0%"/><stop stop-color="rgba(0, 14, 86, 1)" offset="100%"/></linearGradient></defs><path style="transform:translate(0, 0px); opacity:1" fill="url(#sw-gradient-0)" d="M0,204L80,209.7C160,215,320,227,480,221C640,215,800,193,960,198.3C1120,204,1280,238,1440,249.3C1600,261,1760,249,1920,209.7C2080,170,2240,102,2400,102C2560,102,2720,170,2880,175.7C3040,181,3200,125,3360,102C3520,79,3680,91,3840,107.7C4000,125,4160,147,4320,153C4480,159,4640,147,4800,141.7C4960,136,5120,136,5280,113.3C5440,91,5600,45,5760,34C5920,23,6080,45,6240,68C6400,91,6560,113,6720,153C6880,193,7040,249,7200,232.3C7360,215,7520,125,7680,79.3C7840,34,8000,34,8160,68C8320,102,8480,170,8640,187C8800,204,8960,170,9120,164.3C9280,159,9440,181,9600,175.7C9760,170,9920,136,10080,107.7C10240,79,10400,57,10560,62.3C10720,68,10880,102,11040,141.7C11200,181,11360,227,11440,249.3L11520,272L11520,340L11440,340C11360,340,11200,340,11040,340C10880,340,10720,340,10560,340C10400,340,10240,340,10080,340C9920,340,9760,340,9600,340C9440,340,9280,340,9120,340C8960,340,8800,340,8640,340C8480,340,8320,340,8160,340C8000,340,7840,340,7680,340C7520,340,7360,340,7200,340C7040,340,6880,340,6720,340C6560,340,6400,340,6240,340C6080,340,5920,340,5760,340C5600,340,5440,340,5280,340C5120,340,4960,340,4800,340C4640,340,4480,340,4320,340C4160,340,4000,340,3840,340C3680,340,3520,340,3360,340C3200,340,3040,340,2880,340C2720,340,2560,340,2400,340C2240,340,2080,340,1920,340C1760,340,1600,340,1440,340C1280,340,1120,340,960,340C800,340,640,340,480,340C320,340,160,340,80,340L0,340Z"/></svg>